<svg xmlns="http://www.w3.org/2000/svg" xmlns:xlink="http://www.w3.org/1999/xlink" version="1.1" width="256" height="256" viewBox="0 0 256 256" xml:space="preserve">

<defs>
</defs>
<g style="stroke: none; stroke-width: 0; stroke-dasharray: none; stroke-linecap: butt; stroke-linejoin: miter; stroke-miterlimit: 10; fill: none; fill-rule: nonzero; opacity: 1;" transform="translate(1.4065934065934016 1.4065934065934016) scale(2.81 2.81)" >
	<path d="M 77.064 57.936 C 77.064 75.644 62.709 90 45 90 S 12.936 75.644 12.936 57.936 h 0.029 c 0 -11.668 10.792 -22.376 4.974 -38.513 c 6.989 2.259 13.172 5.638 16.766 12.616 C 44.868 23.305 44.547 11.95 41.843 0 c 10.176 7.923 15.343 18.673 14.11 33.035 c 2.313 -6.937 7.173 -10.496 12.616 -13.28 c -5.146 17.928 8.466 27.175 8.466 38.181 L 77.064 57.936 z" style="stroke: none; stroke-width: 1; stroke-dasharray: none; stroke-linecap: butt; stroke-linejoin: miter; stroke-miterlimit: 10; fill: rgb(206,21,21); fill-rule: nonzero; opacity: 1;" transform=" matrix(1 0 0 1 0 0) " stroke-linecap="round" />
	<path d="M 25.5 70.5 C 25.5 81.269 34.23 90 45 90 s 19.5 -8.731 19.5 -19.5 h -0.017 c 0 -7.096 -6.563 -13.608 -3.025 -23.422 c -4.251 1.374 -8.011 3.429 -10.197 7.673 c -6.181 -5.312 0.601 -12.713 -4.341 -19.485 c 1.093 6.772 -9.331 11.356 -8.581 20.09 c -1.407 -4.219 -4.362 -6.383 -7.673 -8.077 c 3.13 10.903 -5.149 16.527 -5.149 23.22 L 25.5 70.5 z" style="stroke: none; stroke-width: 1; stroke-dasharray: none; stroke-linecap: butt; stroke-linejoin: miter; stroke-miterlimit: 10; fill: rgb(226,192,26); fill-rule: nonzero; opacity: 1;" transform=" matrix(1 0 0 1 0 0) " stroke-linecap="round" />
</g>
</svg>