<svg xmlns="http://www.w3.org/2000/svg" xmlns:xlink="http://www.w3.org/1999/xlink" version="1.1" width="256" height="256" viewBox="0 0 256 256" xml:space="preserve">

<defs>
</defs>
<g style="stroke: none; stroke-width: 0; stroke-dasharray: none; stroke-linecap: butt; stroke-linejoin: miter; stroke-miterlimit: 10; fill: none; fill-rule: nonzero; opacity: 1;" transform="translate(1.4065934065934016 1.4065934065934016) scale(2.81 2.81)" >
	<path d="M 88.516 72.599 H 78.88 v -6.87 h 5.786 c 2.941 0 5.333 -2.392 5.333 -5.332 c 0 -3.935 -1.397 -7.758 -3.932 -10.768 l -7.607 -9.028 c -5.538 -6.573 -13.644 -10.343 -22.239 -10.343 h -0.223 V 29.89 c 0 -4.025 -2.911 -7.377 -6.736 -8.078 v -4.411 h 35.403 c 0.819 0 1.484 -0.664 1.484 -1.484 s -0.664 -1.484 -1.484 -1.484 H 13.245 c -0.82 0 -1.484 0.664 -1.484 1.484 s 0.664 1.484 1.484 1.484 h 33.052 v 4.411 c -3.826 0.701 -6.736 4.053 -6.736 8.078 v 0.368 H 16.009 c -0.952 0 -1.807 -0.566 -2.178 -1.443 l -1.647 -3.891 c -0.837 -1.976 -2.764 -3.253 -4.911 -3.253 h -1.94 C 2.392 21.671 0 24.063 0 27.004 V 39.44 c 0 2.94 2.392 5.332 5.333 5.332 h 7.702 c 0.173 0 0.345 0.019 0.515 0.057 l 24.284 5.413 c 3.412 0.761 5.796 3.734 5.796 7.23 c 0 4.552 3.703 8.256 8.255 8.256 h 3.286 v 6.87 H 45 c -0.82 0 -1.484 0.664 -1.484 1.484 c 0 0.819 0.664 1.484 1.484 1.484 h 43.517 c 0.819 0 1.484 -0.664 1.484 -1.484 C 90 73.263 89.336 72.599 88.516 72.599 z M 76.192 42.513 l 7.607 9.028 c 0.139 0.165 0.263 0.341 0.394 0.512 c -24.324 -0.156 -26.878 -6.351 -28.055 -18.828 h 0.084 C 63.94 33.225 71.219 36.611 76.192 42.513 z M 42.527 29.89 c 0 -2.896 2.356 -5.252 5.253 -5.252 s 5.252 2.356 5.252 5.252 v 0.368 H 42.527 V 29.89 z M 46.597 57.473 c 0 -4.897 -3.338 -9.06 -8.118 -10.126 l -24.281 -5.413 c -0.38 -0.085 -0.771 -0.128 -1.163 -0.128 H 5.333 c -1.304 0 -2.366 -1.061 -2.366 -2.365 V 27.004 c 0 -1.304 1.061 -2.365 2.366 -2.365 h 1.94 c 0.952 0 1.807 0.566 2.178 1.443 l 1.647 3.891 c 0.837 1.976 2.764 3.253 4.911 3.253 H 53.16 c 1.447 15.038 5.5 21.799 31.91 21.799 c 0.279 0 0.569 -0.003 0.853 -0.005 c 0.719 1.69 1.11 3.516 1.11 5.376 c 0 1.304 -1.061 2.365 -2.366 2.365 H 51.885 C 48.969 62.762 46.597 60.389 46.597 57.473 z M 58.137 65.729 h 17.776 v 6.87 H 58.137 V 65.729 z" style="stroke: none; stroke-width: 1; stroke-dasharray: none; stroke-linecap: butt; stroke-linejoin: miter; stroke-miterlimit: 10; fill: rgb(0,0,0); fill-rule: nonzero; opacity: 1;" transform=" matrix(1 0 0 1 0 0) " stroke-linecap="round" />
</g>
</svg>